<svg width="182" height="62" viewBox="0 0 182 62" fill="none" xmlns="http://www.w3.org/2000/svg">
<g clip-path="url(#clip0_548_343)">
<path d="M36.6042 51.1817C34.6308 51.1817 32.7469 50.9526 30.9552 50.4946C29.1608 50.0661 27.5018 49.4383 25.9785 48.6138L28.3096 43.3838C29.5646 44.0871 30.8197 44.6368 32.0774 45.0355C33.3622 45.4343 34.8124 45.631 36.428 45.631C38.7591 45.631 40.4776 45.0652 41.5836 43.9335C42.7193 42.8018 43.2886 41.1366 43.2886 38.9325V37.7389C42.2721 38.9918 41.1662 39.9699 39.9708 40.6759C38.7754 41.3791 37.2655 41.7321 35.4413 41.7321C34.0372 41.7321 32.69 41.4869 31.4052 40.9992C30.1203 40.4792 28.9846 39.7301 27.9979 38.752C27.0112 37.7739 26.2197 36.5803 25.6207 35.1737C25.0514 33.7376 24.7695 32.0993 24.7695 30.2644V30.1728C24.7695 28.3378 25.0677 26.7185 25.6668 25.3093C26.2658 23.8731 27.0573 22.6633 28.044 21.6852C29.0306 20.7071 30.1664 19.9715 31.4512 19.4838C32.7361 18.9637 34.067 18.7051 35.4413 18.7051C37.2954 18.7051 38.8187 19.0581 40.0141 19.7613C41.2095 20.4646 42.2721 21.3349 43.1991 22.375V19.1631H50.0164V38.1996C50.0164 42.5728 48.9999 45.7981 46.9669 47.8782C45.8311 49.0395 44.3972 49.8802 42.6624 50.4003C40.9574 50.9203 38.9407 51.179 36.6096 51.179L36.6042 51.1817ZM37.4119 35.9524C38.2495 35.9524 39.0275 35.815 39.7431 35.5402C40.4614 35.2654 41.074 34.8827 41.5809 34.3923C42.1176 33.8723 42.5377 33.2607 42.8359 32.5574C43.1341 31.8541 43.2832 31.0889 43.2832 30.2644V30.1728C43.2832 29.3483 43.1341 28.583 42.8359 27.8798C42.5377 27.1765 42.1176 26.581 41.5809 26.0907C41.0713 25.5706 40.4587 25.1745 39.7431 24.897C39.0247 24.6222 38.2495 24.4847 37.4119 24.4847C36.5743 24.4847 35.7964 24.6222 35.0808 24.897C34.3923 25.1718 33.7797 25.5706 33.243 26.0907C32.7334 26.581 32.3322 27.1765 32.0313 27.8798C31.7331 28.583 31.5841 29.3483 31.5841 30.1728V30.2644C31.5841 31.9781 32.137 33.3523 33.243 34.3923C34.3489 35.4324 35.7395 35.9524 37.4119 35.9524Z" fill="url(#paint0_linear_548_343)"/>
<path fill-rule="evenodd" clip-rule="evenodd" d="M31.1858 58.3113C46.36 58.3113 58.6581 46.0837 58.6581 31.0027C58.6581 15.9217 46.36 3.69144 31.1858 3.69144C16.0117 3.69144 3.71357 15.9163 3.71357 31C3.71357 46.0837 16.0144 58.3086 31.1858 58.3086V58.3113ZM31.1858 62.0027C48.4092 62.0027 62.3717 48.1234 62.3717 31.0027C62.3717 13.882 48.4092 0 31.1858 0C13.9625 0 0 13.8793 0 31C0 48.1207 13.9625 62 31.1858 62V62.0027Z" fill="url(#paint1_linear_548_343)"/>
<path d="M21.5616 43.1547C20.5343 43.1547 19.5937 43.0388 18.7425 42.8044C17.9212 42.5996 17.2002 42.2197 16.5849 41.6619C15.9967 41.1069 15.5277 40.3875 15.1754 39.5118C14.8528 38.6037 14.6902 37.4639 14.6902 36.0871V24.9346H11.8711V19.2277H14.6902V13.2136H21.3854V19.2277H26.9341V20.874C26.9341 20.874 26.2564 21.4911 25.427 22.5473C24.6002 23.6035 24.1584 24.9346 24.1584 24.9346H21.3827V34.9877C21.3827 36.5101 22.101 37.2699 23.5404 37.2699C23.9714 37.2699 24.9824 37.0759 24.9824 37.0759C24.9824 37.0759 25.2481 37.8681 25.6899 38.3962C26.1317 38.9244 26.8419 39.6303 26.8419 39.6303V41.7913C26.1372 42.2008 25.3592 42.5242 24.5081 42.7559C23.6569 43.02 22.673 43.152 21.5562 43.152L21.5616 43.1547Z" fill="url(#paint2_linear_548_343)"/>
<path d="M74.95 21.7311V29.4023H82.1115V32.2423H74.95V44.8551H71.6484V18.8184H83.1876V21.7311H74.95Z" fill="white"/>
<path d="M87.0469 44.8578V18.8184H98.586V21.7311H90.3132V29.4777H97.5479V32.4282H90.3132V41.9424H98.8463V44.8551H87.0469V44.8578Z" fill="white"/>
<path d="M115.914 36.3001C115.914 37.2593 115.876 38.2185 115.803 39.1778C115.618 41.2417 114.987 43.1225 113.057 44.1572C111.498 44.9682 109.755 44.8577 108.121 44.8577H103.223V18.8183H108.156C109.753 18.8183 111.346 18.7455 112.867 19.4084C115.315 20.4781 115.686 22.8007 115.797 23.6118C115.946 24.7192 115.984 27.4487 115.984 30.5096C115.984 32.4281 115.946 34.3816 115.911 36.3001H115.914ZM112.723 26.4895C112.685 24.4255 112.574 23.3558 111.796 22.5798C110.869 21.731 109.273 21.8065 108.161 21.8065H106.492V41.98H108.644C109.46 41.98 110.425 41.98 111.241 41.5732C111.796 41.2795 112.279 40.8726 112.539 39.6197C112.726 38.6227 112.761 35.8959 112.761 32.9077C112.761 30.7683 112.799 28.6289 112.723 26.4895Z" fill="white"/>
<path d="M120.184 44.8578V18.8184H131.723V21.7311H123.45V29.4777H130.685V32.4282H123.45V41.9424H131.983V44.8551H120.184V44.8578Z" fill="white"/>
<path d="M146.749 44.8578L142.296 33.4251H139.588V44.8578H136.359V18.8184H142.073C143.743 18.8184 145.562 18.8911 146.972 20.0363C149.162 21.8065 149.013 25.2366 149.013 25.7513C149.013 26.8587 148.939 27.9284 148.752 28.9981C148.492 30.472 148.086 31.2103 147.676 31.7276C146.86 32.7246 145.895 32.9455 145.486 33.056L150.162 44.8578H146.749ZM145.451 23.5041C144.784 21.6233 142.778 21.7715 141.184 21.7715H139.588V30.8816H141.295C142.743 30.8816 143.448 30.8438 144.152 30.5879C145.784 29.925 145.749 27.6374 145.749 26.274C145.749 25.3875 145.749 24.3555 145.451 23.5068V23.5041Z" fill="white"/>
<path d="M164.223 44.8578L163.296 39.8407H157.211L156.319 44.8578H152.941L158.582 18.8184H161.849L167.636 44.8578H164.223ZM160.179 23.6496L157.766 37.0384H162.738L160.179 23.6496Z" fill="white"/>
<path d="M170.977 44.8578V18.8184H174.316V41.9424H181.995V44.8551H170.977V44.8578Z" fill="white"/>
</g>
<defs>
<linearGradient id="paint0_linear_548_343" x1="37.3875" y1="18.7024" x2="37.3875" y2="51.179" gradientUnits="userSpaceOnUse">
<stop stop-color="#EA3751"/>
<stop offset="1" stop-color="#F2B745"/>
</linearGradient>
<linearGradient id="paint1_linear_548_343" x1="40.5429" y1="-2.24989" x2="23.287" y2="59.8036" gradientUnits="userSpaceOnUse">
<stop stop-color="#EA2E29"/>
<stop offset="1" stop-color="#FFAE3D"/>
</linearGradient>
<linearGradient id="paint2_linear_548_343" x1="26.2266" y1="17.2877" x2="14.2898" y2="39.8942" gradientUnits="userSpaceOnUse">
<stop stop-color="#EA3751"/>
<stop offset="1" stop-color="#FFAE3D"/>
</linearGradient>
<clipPath id="clip0_548_343">
<rect width="182" height="62" fill="white"/>
</clipPath>
</defs>
</svg>
