<svg xmlns="http://www.w3.org/2000/svg" viewBox="0 0 200 200">
  <defs>
    <linearGradient id="usaf-grad" x1="0%" y1="0%" x2="100%" y2="100%">
      <stop offset="0%" style="stop-color:#1E3A5F;stop-opacity:1" />
      <stop offset="100%" style="stop-color:#0D1F3C;stop-opacity:1" />
    </linearGradient>
  </defs>
  <circle cx="100" cy="100" r="75" fill="url(#usaf-grad)" stroke="#D4AF37" stroke-width="3"/>
  <circle cx="100" cy="100" r="60" fill="none" stroke="#D4AF37" stroke-width="1" opacity="0.3"/>
  <!-- Wings motif -->
  <path d="M40 95 Q60 75 85 85 L100 80 L115 85 Q140 75 160 95" fill="none" stroke="#D4AF37" stroke-width="2.5" stroke-linecap="round"/>
  <path d="M55 100 Q70 85 90 90 L100 87 L110 90 Q130 85 145 100" fill="none" stroke="#D4AF37" stroke-width="1.5" opacity="0.5"/>
  <!-- Star -->
  <polygon points="100,60 103,68 112,68 105,73 108,82 100,77 92,82 95,73 88,68 97,68" fill="#D4AF37" opacity="0.8"/>
  <text x="100" y="128" text-anchor="middle" font-family="Arial,Helvetica,sans-serif" font-weight="bold" font-size="20" fill="#D4AF37">USAF</text>
</svg>